<svg width="99" height="22" fill="none" xmlns="http://www.w3.org/2000/svg"><path d="M58.414 6.815v14.949h-4.337v-2.183a4.797 4.797 0 01-1.858 1.8c-.767.413-1.633.619-2.597.619-1.868 0-3.265-.521-4.19-1.564-.924-1.042-1.386-2.616-1.386-4.72v-8.9h4.455v8.988c0 1.81.777 2.715 2.33 2.715.925 0 1.673-.315 2.243-.945.57-.629.856-1.455.856-2.478v-8.28h4.484zM75.41 0v21.764h-4.397v-2.213a4.708 4.708 0 01-1.917 1.8c-.826.433-1.76.649-2.803.649-1.279 0-2.42-.325-3.422-.983-1.004-.66-1.78-1.584-2.341-2.774-.56-1.19-.836-2.547-.836-4.081 0-1.534.275-2.882.836-4.052.56-1.17 1.337-2.075 2.33-2.714.994-.64 2.135-.954 3.433-.954 1.003 0 1.918.216 2.744.63.826.422 1.465 1.002 1.918 1.75V0h4.455zm-5.282 17.476c.59-.757.886-1.839.886-3.255 0-1.397-.296-2.469-.895-3.226-.6-.757-1.436-1.13-2.518-1.13-1.102 0-1.957.373-2.567 1.12-.61.748-.915 1.81-.915 3.187 0 1.416.305 2.508.915 3.284.61.777 1.465 1.16 2.567 1.16 1.101-.009 1.937-.383 2.527-1.14zm22.286-10.66v14.948h-4.397v-2.213a4.708 4.708 0 01-1.917 1.8c-.826.433-1.76.649-2.803.649-1.298 0-2.44-.315-3.432-.944-.994-.63-1.77-1.524-2.331-2.695-.56-1.17-.836-2.518-.836-4.052 0-1.534.275-2.9.836-4.1.56-1.2 1.337-2.125 2.34-2.784 1.004-.659 2.144-.983 3.423-.983 1.042 0 1.977.226 2.803.678.826.453 1.465 1.062 1.917 1.83V6.814h4.397zm-5.282 10.67c.59-.748.885-1.83.885-3.245 0-1.417-.294-2.498-.885-3.256-.59-.757-1.435-1.13-2.537-1.13-1.101 0-1.957.393-2.567 1.18-.61.786-.914 1.878-.914 3.274 0 1.397.295 2.459.895 3.197.6.737 1.455 1.101 2.576 1.101 1.112 0 1.957-.374 2.547-1.121zm-43.98 4.494h-5.527l-5.94-6.776v6.776H27.18V0h4.504v13.346l5.674-6.481h5.41l-6.422 7.258 6.805 7.857zm-28.332 0l-8.644-9.952 4.72 9.952H7.623l-4.82-10.149 2.007 10.15H2.793L.787 11.81v10.17H0V0h.787v10.966L2.823 0h2.006L2.783 11.015 7.7 0h3.236L6.048 10.975 14.928 0h5.085l-9.195 11.35 9.235 10.63H14.82zm81.326-.235a2.439 2.439 0 100-4.878 2.439 2.439 0 000 4.878z" fill="#40196D"/></svg>